<svg xmlns="http://www.w3.org/2000/svg" version="1.1" xmlns:xlink="http://www.w3.org/1999/xlink" xmlns:svgjs="http://svgjs.com/svgjs" width="438" height="241" preserveAspectRatio="none" viewBox="0 0 438 241">
    <g mask="url(&quot;#SvgjsMask1008&quot;)" fill="none">
        <rect width="438" height="241" x="0" y="0" fill="rgba(158, 190, 209, 1)"></rect>
        <path d="M0,147.072C33.204,149.144,67.915,166.864,97.662,151.966C127.812,136.866,141.487,101.616,153.597,70.146C165.16,40.097,169.736,8.123,165.287,-23.765C160.825,-55.746,147.655,-85.325,128.3,-111.172C107.864,-138.463,84.802,-168.013,51.569,-175.628C18.735,-183.151,-11.91,-160.125,-44.252,-150.709C-76.684,-141.266,-116.667,-145.788,-138.74,-120.219C-160.811,-94.652,-150.161,-55.714,-155.103,-22.301C-160.07,11.281,-180.459,45.137,-167.859,76.659C-155.177,108.385,-121.638,127.029,-90.131,140.246C-61.773,152.142,-30.692,145.157,0,147.072" fill="#6c9db9"></path>
        <path d="M438 401.748C467.159 396.842 488.363 373.755 511.418 355.24 532.082 338.645 550.123 320.786 565.604 299.275 584.5029999999999 273.015 614.644 248.25 611.5989999999999 216.04 608.563 183.917 574.84 164.792 550.852 143.213 529.5699999999999 124.068 507.315 106.505 480.07 97.72200000000001 452.311 88.773 423.375 88.79400000000001 394.486 92.804 361.519 97.38 324.517 98.702 301.286 122.536 277.81100000000004 146.62 269.656 183.846 273.145 217.297 276.341 247.94 306.779 267.058 319.294 295.211 332 323.793 323.501 362.049 346.78 382.94100000000003 370.363 404.106 406.751 407.006 438 401.748" fill="#d0dfe9"></path>
    </g>
    <defs>
        <mask id="SvgjsMask1008">
            <rect width="438" height="241" fill="#ffffff"></rect>
        </mask>
    </defs>
</svg>